<?xml version="1.0" encoding="UTF-8"?>
<svg width="27px" height="27px" viewBox="0 0 27 27" version="1.1" xmlns="http://www.w3.org/2000/svg" xmlns:xlink="http://www.w3.org/1999/xlink">
    <!-- Generator: Sketch 61.2 (89653) - https://sketch.com -->
    <title>facebook-square-brands</title>
    <desc>Created with Sketch.</desc>
    <g id="Page-1" stroke="none" stroke-width="1" fill="none" fill-rule="evenodd">
        <g id="Tablet" transform="translate(-303.000000, -2032.000000)" fill="#6B6B6B" fill-rule="nonzero">
            <g id="Footer" transform="translate(0.000000, 1981.000000)">
                <g id="social" transform="translate(303.000000, 51.000000)">
                    <g id="facebook-square-brands">
                        <path d="M24,-4.26325641e-16 L2.88,-4.26325641e-16 C1.28941992,-4.26325641e-16 0,1.28941992 0,2.88 L0,24 C0,25.5905801 1.28941992,26.88 2.88,26.88 L11.115,26.88 L11.115,17.7414 L7.335,17.7414 L7.335,13.44 L11.115,13.44 L11.115,10.1616 C11.115,6.4326 13.335,4.3728 16.7352,4.3728 C18.3636,4.3728 20.0664,4.6632 20.0664,4.6632 L20.0664,8.3232 L18.1902,8.3232 C16.3416,8.3232 15.765,9.4704 15.765,10.647 L15.765,13.44 L19.8918,13.44 L19.2318,17.7414 L15.765,17.7414 L15.765,26.88 L24,26.88 C25.5905801,26.88 26.88,25.5905801 26.88,24 L26.88,2.88 C26.88,1.28941992 25.5905801,-4.26325641e-16 24,-4.26325641e-16 L24,-4.26325641e-16 Z" id="Path"></path>
                    </g>
                </g>
            </g>
        </g>
    </g>
</svg>