<?xml version="1.0" encoding="UTF-8"?>
<svg width="27px" height="27px" viewBox="0 0 27 27" version="1.1" xmlns="http://www.w3.org/2000/svg" xmlns:xlink="http://www.w3.org/1999/xlink">
    <!-- Generator: Sketch 61.2 (89653) - https://sketch.com -->
    <title>twitter-square-brands</title>
    <desc>Created with Sketch.</desc>
    <g id="Page-1" stroke="none" stroke-width="1" fill="none" fill-rule="evenodd">
        <g id="Tablet" transform="translate(-348.000000, -2032.000000)" fill="#6B6B6B" fill-rule="nonzero">
            <g id="Footer" transform="translate(0.000000, 1981.000000)">
                <g id="social" transform="translate(303.000000, 51.000000)">
                    <g id="twitter-square-brands" transform="translate(45.000000, 0.000000)">
                        <path d="M24,0 L2.88,0 C1.29,0 0,1.29 0,2.88 L0,24 C0,25.59 1.29,26.88 2.88,26.88 L24,26.88 C25.59,26.88 26.88,25.59 26.88,24 L26.88,2.88 C26.88,1.29 25.59,0 24,0 Z M21.066,9.528 C21.078,9.696 21.078,9.87 21.078,10.038 C21.078,15.24 17.118,21.234 9.882,21.234 C7.65,21.234 5.58,20.586 3.84,19.47 C4.158,19.506 4.464,19.518 4.788,19.518 C6.63,19.518 8.322,18.894 9.672,17.838 C7.944,17.802 6.492,16.668 5.994,15.108 C6.6,15.198 7.146,15.198 7.77,15.036 C5.97,14.67 4.62,13.086 4.62,11.172 L4.62,11.124 C5.142,11.418 5.754,11.598 6.396,11.622 C5.29970889,10.892782 4.64184443,9.66266562 4.644,8.346 C4.644,7.614 4.836,6.942 5.178,6.36 C7.116,8.748 10.026,10.308 13.29,10.476 C12.732,7.806 14.73,5.64 17.13,5.64 C18.264,5.64 19.284,6.114 20.004,6.882 C20.892,6.714 21.744,6.384 22.5,5.934 C22.206,6.846 21.588,7.614 20.772,8.1 C21.564,8.016 22.332,7.794 23.04,7.488 C22.506,8.274 21.834,8.97 21.066,9.528 L21.066,9.528 Z" id="Shape"></path>
                    </g>
                </g>
            </g>
        </g>
    </g>
</svg>