<?xml version="1.0" encoding="UTF-8"?>
<svg width="27px" height="27px" viewBox="0 0 27 27" version="1.1" xmlns="http://www.w3.org/2000/svg" xmlns:xlink="http://www.w3.org/1999/xlink">
    <!-- Generator: Sketch 61.2 (89653) - https://sketch.com -->
    <title>youtube-square-brands</title>
    <desc>Created with Sketch.</desc>
    <g id="Page-1" stroke="none" stroke-width="1" fill="none" fill-rule="evenodd">
        <g id="Tablet" transform="translate(-394.000000, -2032.000000)" fill="#6B6B6B" fill-rule="nonzero">
            <g id="Footer" transform="translate(0.000000, 1981.000000)">
                <g id="social" transform="translate(303.000000, 51.000000)">
                    <g id="youtube-square-brands" transform="translate(91.000000, 0.000000)">
                        <path d="M11.208,10.206 L16.92,13.452 L11.208,16.698 L11.208,10.206 Z M26.88,2.88 L26.88,24 C26.88,25.59 25.59,26.88 24,26.88 L2.88,26.88 C1.29,26.88 0,25.59 0,24 L0,2.88 C0,1.29 1.29,0 2.88,0 L24,0 C25.59,0 26.88,1.29 26.88,2.88 Z M24.36,13.458 C24.36,13.458 24.36,9.882 23.904,8.166 C23.652,7.218 22.914,6.474 21.972,6.222 C20.274,5.76 13.44,5.76 13.44,5.76 C13.44,5.76 6.606,5.76 4.908,6.222 C3.966,6.474 3.228,7.218 2.976,8.166 C2.52,9.876 2.52,13.458 2.52,13.458 C2.52,13.458 2.52,17.034 2.976,18.75 C3.228,19.698 3.966,20.412 4.908,20.664 C6.606,21.12 13.44,21.12 13.44,21.12 C13.44,21.12 20.274,21.12 21.972,20.658 C22.914,20.406 23.652,19.692 23.904,18.744 C24.36,17.034 24.36,13.458 24.36,13.458 L24.36,13.458 Z" id="Shape"></path>
                    </g>
                </g>
            </g>
        </g>
    </g>
</svg>